<svg xmlns="http://www.w3.org/2000/svg" fill="none" viewBox="0 0 148 114"><path stroke="#000" stroke-width="6" d="M7 3h136v102H7z"/><path fill="#000" d="M22.155 37.25q-3.85 0-6.95-1.5t-5.35-4.05a19.8 19.8 0 0 1-3.5-5.8q-1.2-3.25-1.2-6.65 0-3.55 1.3-6.75a18.6 18.6 0 0 1 3.6-5.75 16.8 16.8 0 0 1 5.4-4q3.15-1.5 6.8-1.5 3.8 0 6.9 1.55 3.15 1.55 5.35 4.15a19 19 0 0 1 3.45 5.8 17.9 17.9 0 0 1 1.25 6.55q0 3.55-1.3 6.8a18.7 18.7 0 0 1-3.55 5.75 17 17 0 0 1-5.45 3.95q-3.1 1.45-6.75 1.45m-11.3-18q0 2.5.8 4.85a14.1 14.1 0 0 0 2.25 4.2q1.5 1.8 3.6 2.85t4.7 1.05q2.7 0 4.8-1.1a10.35 10.35 0 0 0 3.5-2.95 14 14 0 0 0 2.2-4.2q.75-2.35.75-4.7 0-2.5-.8-4.8-.75-2.35-2.25-4.15-1.5-1.85-3.6-2.9-2.05-1.05-4.6-1.05-2.7 0-4.8 1.1c-2.1 1.1-2.584 1.717-3.55 2.95a14.3 14.3 0 0 0-2.25 4.15q-.75 2.3-.75 4.7M90.152 1.5V37h-5.65V21.35h-17.9V37h-5.6V1.5h5.6v14.85h17.9V1.5zm38.758 35.75q-3.85 0-6.95-1.5a16.85 16.85 0 0 1-5.35-4.05 19.8 19.8 0 0 1-3.5-5.8q-1.2-3.25-1.2-6.65 0-3.55 1.3-6.75a18.6 18.6 0 0 1 3.6-5.75 16.8 16.8 0 0 1 5.4-4q3.15-1.5 6.8-1.5 3.801 0 6.9 1.55 3.15 1.55 5.35 4.15a19 19 0 0 1 3.45 5.8 17.8 17.8 0 0 1 1.25 6.55q0 3.55-1.3 6.8a18.6 18.6 0 0 1-3.55 5.75 17 17 0 0 1-5.45 3.95q-3.099 1.45-6.75 1.45m-11.3-18q0 2.5.8 4.85a14.2 14.2 0 0 0 2.25 4.2q1.5 1.8 3.6 2.85t4.7 1.05q2.7 0 4.8-1.1a10.35 10.35 0 0 0 3.5-2.95 14 14 0 0 0 2.2-4.2q.75-2.35.75-4.7 0-2.5-.8-4.8-.75-2.35-2.25-4.15-1.5-1.85-3.6-2.9-2.05-1.05-4.6-1.05-2.7 0-4.8 1.1c-2.1 1.1-2.583 1.717-3.55 2.95a14.3 14.3 0 0 0-2.25 4.15q-.75 2.3-.75 4.7m-83.895 22.2h-11.8V72h-5.65V41.45H4.415V36.5h29.3zm34.61 25.6V72h-24.35V36.5h23.9v4.95h-18.3v10.1h15.85v4.65h-15.85v10.85zM79.654 72V36.5h24.95v4.9h-19.35v9.95h10.4q5.9 0 8.85 2.8 2.95 2.75 2.95 7.3 0 3.05-1.3 5.45-1.25 2.35-3.8 3.75-2.5 1.35-6.35 1.35zm5.6-4.9h10q2.3 0 3.7-.85 1.45-.85 2.05-2.15.65-1.35.65-2.8a6.6 6.6 0 0 0-.55-2.7q-.55-1.25-2-2-1.4-.8-3.95-.8h-9.9zm57.305-.05V72h-24.35V36.5h23.9v4.95h-18.3v10.1h15.85v4.65h-15.85v10.85zM33.59 71.5V107h-5.65V91.35h-17.9V107h-5.6V71.5h5.6v14.85h17.9V71.5zm19.259 0h5.3l13.8 35.5h-5.9l-3.75-9.65h-13.7l-3.7 9.65h-5.95zm8.35 21.7-5.7-15.55-5.9 15.55zm10.54 20.6v-11.75h1.7q1.4 0 2.4-1.1 1.05-1.1 1.75-3.5.75-2.4 1.15-6.3.45-3.95.65-9.65l.25-10h22.85v30.55h4.5v11.75h-4.95V107h-25.35v6.8zm8.8-11.75h16.3v-25.6h-12l-.15 5.8q-.15 5.75-.6 9.75-.45 3.95-1.3 6.4t-2.25 3.65m48.173 5.2q-3.85 0-6.95-1.5c-3.1-1.5-3.85-2.35-5.35-4.05a19.8 19.8 0 0 1-3.5-5.8q-1.2-3.25-1.2-6.65 0-3.55 1.3-6.75a18.6 18.6 0 0 1 3.6-5.75 16.8 16.8 0 0 1 5.4-4q3.15-1.5 6.8-1.5 3.8 0 6.9 1.55 3.15 1.55 5.35 4.15a19 19 0 0 1 3.45 5.8 17.9 17.9 0 0 1 1.25 6.55q0 3.55-1.3 6.8a18.6 18.6 0 0 1-3.55 5.75 17 17 0 0 1-5.45 3.95q-3.1 1.45-6.75 1.45m-11.3-18q0 2.5.8 4.85a14.1 14.1 0 0 0 2.25 4.2q1.5 1.8 3.6 2.85t4.7 1.05q2.7 0 4.8-1.1a10.35 10.35 0 0 0 3.5-2.95 14 14 0 0 0 2.2-4.2q.75-2.35.75-4.7 0-2.5-.8-4.8-.75-2.35-2.25-4.15-1.5-1.85-3.6-2.9-2.05-1.05-4.6-1.05-2.7 0-4.8 1.1a10.9 10.9 0 0 0-3.55 2.95 14.3 14.3 0 0 0-2.25 4.15q-.75 2.3-.75 4.7"/></svg>